<svg class="lds-spinner" width="200px"  height="200px"  xmlns="http://www.w3.org/2000/svg" xmlns:xlink="http://www.w3.org/1999/xlink" viewBox="0 0 100 100" preserveAspectRatio="xMidYMid" style="background: none;"><g transform="rotate(0 50 50)">
  <rect x="47" y="24" rx="9.4" ry="4.8" width="6" height="12" fill="#459448">
    <animate attributeName="opacity" values="1;0" keyTimes="0;1" dur="2.6s" begin="-2.3833333333333333s" repeatCount="indefinite"></animate>
  </rect>
</g><g transform="rotate(30 50 50)">
  <rect x="47" y="24" rx="9.4" ry="4.8" width="6" height="12" fill="#459448">
    <animate attributeName="opacity" values="1;0" keyTimes="0;1" dur="2.6s" begin="-2.1666666666666665s" repeatCount="indefinite"></animate>
  </rect>
</g><g transform="rotate(60 50 50)">
  <rect x="47" y="24" rx="9.4" ry="4.8" width="6" height="12" fill="#459448">
    <animate attributeName="opacity" values="1;0" keyTimes="0;1" dur="2.6s" begin="-1.9500000000000002s" repeatCount="indefinite"></animate>
  </rect>
</g><g transform="rotate(90 50 50)">
  <rect x="47" y="24" rx="9.4" ry="4.8" width="6" height="12" fill="#459448">
    <animate attributeName="opacity" values="1;0" keyTimes="0;1" dur="2.6s" begin="-1.7333333333333334s" repeatCount="indefinite"></animate>
  </rect>
</g><g transform="rotate(120 50 50)">
  <rect x="47" y="24" rx="9.4" ry="4.8" width="6" height="12" fill="#459448">
    <animate attributeName="opacity" values="1;0" keyTimes="0;1" dur="2.6s" begin="-1.5166666666666666s" repeatCount="indefinite"></animate>
  </rect>
</g><g transform="rotate(150 50 50)">
  <rect x="47" y="24" rx="9.4" ry="4.8" width="6" height="12" fill="#459448">
    <animate attributeName="opacity" values="1;0" keyTimes="0;1" dur="2.6s" begin="-1.3s" repeatCount="indefinite"></animate>
  </rect>
</g><g transform="rotate(180 50 50)">
  <rect x="47" y="24" rx="9.4" ry="4.8" width="6" height="12" fill="#459448">
    <animate attributeName="opacity" values="1;0" keyTimes="0;1" dur="2.6s" begin="-1.0833333333333333s" repeatCount="indefinite"></animate>
  </rect>
</g><g transform="rotate(210 50 50)">
  <rect x="47" y="24" rx="9.4" ry="4.8" width="6" height="12" fill="#459448">
    <animate attributeName="opacity" values="1;0" keyTimes="0;1" dur="2.6s" begin="-0.8666666666666667s" repeatCount="indefinite"></animate>
  </rect>
</g><g transform="rotate(240 50 50)">
  <rect x="47" y="24" rx="9.4" ry="4.8" width="6" height="12" fill="#459448">
    <animate attributeName="opacity" values="1;0" keyTimes="0;1" dur="2.6s" begin="-0.65s" repeatCount="indefinite"></animate>
  </rect>
</g><g transform="rotate(270 50 50)">
  <rect x="47" y="24" rx="9.4" ry="4.8" width="6" height="12" fill="#459448">
    <animate attributeName="opacity" values="1;0" keyTimes="0;1" dur="2.6s" begin="-0.43333333333333335s" repeatCount="indefinite"></animate>
  </rect>
</g><g transform="rotate(300 50 50)">
  <rect x="47" y="24" rx="9.4" ry="4.8" width="6" height="12" fill="#459448">
    <animate attributeName="opacity" values="1;0" keyTimes="0;1" dur="2.6s" begin="-0.21666666666666667s" repeatCount="indefinite"></animate>
  </rect>
</g><g transform="rotate(330 50 50)">
  <rect x="47" y="24" rx="9.4" ry="4.8" width="6" height="12" fill="#459448">
    <animate attributeName="opacity" values="1;0" keyTimes="0;1" dur="2.6s" begin="0s" repeatCount="indefinite"></animate>
  </rect>
</g></svg>